HIERARCHY
ROOT pelvis
{
  OFFSET 0.0122782 94.9974 -0.0187994
  CHANNELS 6 Xposition Yposition Zposition Zrotation Xrotation Yrotation
  JOINT spine_01
  {
    OFFSET 10.8089 -0.851403 0
    CHANNELS 3 Zrotation Xrotation Yrotation
    JOINT spine_02
    {
      OFFSET 18.8754 3.80116 0
      CHANNELS 3 Zrotation Xrotation Yrotation
      JOINT spine_03
      {
        OFFSET 13.4073 0.420477 0
        CHANNELS 3 Zrotation Xrotation Yrotation
        JOINT clavicle_l
        {
          OFFSET 11.8837 -2.73209 -3.78198
          CHANNELS 3 Zrotation Xrotation Yrotation
          JOINT upperarm_l
          {
            OFFSET 15.7849 0 0
            CHANNELS 3 Zrotation Xrotation Yrotation
            JOINT lowerarm_l
            {
              OFFSET 30.34 0 -2.4046e-05
              CHANNELS 3 Zrotation Xrotation Yrotation
              JOINT hand_l
              {
                OFFSET 26.9751 -1.53539e-05 0
                CHANNELS 3 Zrotation Xrotation Yrotation
                JOINT index_01_l
                {
                  OFFSET 12.0681 1.76346 -2.1094
                  CHANNELS 3 Zrotation Xrotation Yrotation
                  JOINT index_02_l
                  {
                    OFFSET 4.2875 0 0
                    CHANNELS 3 Zrotation Xrotation Yrotation
                    End Site
                    {
                      OFFSET 3.39379 0 0
                    }
                  }
                }
                JOINT middle_01_l
                {
                  OFFSET 12.2443 1.29364 0.571163
                  CHANNELS 3 Zrotation Xrotation Yrotation
                  JOINT middle_02_l
                  {
                    OFFSET 4.64038 0 0
                    CHANNELS 3 Zrotation Xrotation Yrotation
                    End Site
                    {
                      OFFSET 3.64884 0 0
                    }
                  }
                }
                JOINT pinky_01_l
                {
                  OFFSET 10.1407 2.26315 4.64315
                  CHANNELS 3 Zrotation Xrotation Yrotation
                  JOINT pinky_02_l
                  {
                    OFFSET 3.57098 0 0
                    CHANNELS 3 Zrotation Xrotation Yrotation
                    End Site
                    {
                      OFFSET 2.98563 0 0
                    }
                  }
                }
                JOINT ring_01_l
                {
                  OFFSET 11.4979 1.75352 2.84691
                  CHANNELS 3 Zrotation Xrotation Yrotation
                  JOINT ring_02_l
                  {
                    OFFSET 4.43018 1.174e-05 0
                    CHANNELS 3 Zrotation Xrotation Yrotation
                    End Site
                    {
                      OFFSET 3.47665 0 0
                    }
                  }
                }
                JOINT thumb_01_l
                {
                  OFFSET 4.76203 2.37498 -2.53782
                  CHANNELS 3 Zrotation Xrotation Yrotation
                  JOINT thumb_02_l
                  {
                    OFFSET 3.86967 0 0
                    CHANNELS 3 Zrotation Xrotation Yrotation
                    End Site
                    {
                      OFFSET 4.06217 0 0
                    }
                  }
                }
              }
              JOINT lowerarm_twist_01_l
              {
                OFFSET 14 0 0
                CHANNELS 3 Zrotation Xrotation Yrotation
                End Site
                {
                  OFFSET 0 0 0
                }
              }
            }
            JOINT upperarm_twist_01_l
            {
              OFFSET 0.5 0 0
              CHANNELS 3 Zrotation Xrotation Yrotation
              End Site
              {
                OFFSET 0 0 0
              }
            }
          }
        }
        JOINT clavicle_r
        {
          OFFSET 11.8838 -2.7321 3.782
          CHANNELS 3 Zrotation Xrotation Yrotation
          JOINT upperarm_r
          {
            OFFSET -15.7848 0 -2.0448e-05
            CHANNELS 3 Zrotation Xrotation Yrotation
            JOINT lowerarm_r
            {
              OFFSET -30.34 0 4.1807e-05
              CHANNELS 3 Zrotation Xrotation Yrotation
              JOINT hand_r
              {
                OFFSET -26.9752 2.61134e-05 0
                CHANNELS 3 Zrotation Xrotation Yrotation
                JOINT index_01_r
                {
                  OFFSET -12.0679 -1.76372 2.10943
                  CHANNELS 3 Zrotation Xrotation Yrotation
                  JOINT index_02_r
                  {
                    OFFSET -4.2877 8.86285e-05 -7.3681e-05
                    CHANNELS 3 Zrotation Xrotation Yrotation
                    End Site
                    {
                      OFFSET -3.3938 0.000120697 -1.2408e-05
                    }
                  }
                }
                JOINT middle_01_r
                {
                  OFFSET -12.2441 -1.29372 -0.571132
                  CHANNELS 3 Zrotation Xrotation Yrotation
                  JOINT middle_02_r
                  {
                    OFFSET -4.64057 -0.000151476 0
                    CHANNELS 3 Zrotation Xrotation Yrotation
                    End Site
                    {
                      OFFSET -3.64891 3.29968e-05 0
                    }
                  }
                }
                JOINT pinky_01_r
                {
                  OFFSET -10.1406 -2.26335 -4.6431
                  CHANNELS 3 Zrotation Xrotation Yrotation
                  JOINT pinky_02_r
                  {
                    OFFSET -3.57105 -7.47617e-05 0
                    CHANNELS 3 Zrotation Xrotation Yrotation
                    End Site
                    {
                      OFFSET -2.98542 0.000317277 -3.50569e-05
                    }
                  }
                }
                JOINT ring_01_r
                {
                  OFFSET -11.498 -1.75377 -2.84692
                  CHANNELS 3 Zrotation Xrotation Yrotation
                  JOINT ring_02_r
                  {
                    OFFSET -4.42986 9.01051e-05 -1.75903e-05
                    CHANNELS 3 Zrotation Xrotation Yrotation
                    End Site
                    {
                      OFFSET -3.47666 7.19416e-05 0
                    }
                  }
                }
                JOINT thumb_01_r
                {
                  OFFSET -4.76212 -2.37512 2.5378
                  CHANNELS 3 Zrotation Xrotation Yrotation
                  JOINT thumb_02_r
                  {
                    OFFSET -3.86957 0.000108748 5.37723e-05
                    CHANNELS 3 Zrotation Xrotation Yrotation
                    End Site
                    {
                      OFFSET -4.06218 0 0
                    }
                  }
                }
              }
              JOINT lowerarm_twist_01_r
              {
                OFFSET -14 2.43319e-05 0
                CHANNELS 3 Zrotation Xrotation Yrotation
                End Site
                {
                  OFFSET 0 0 0
                }
              }
            }
            JOINT upperarm_twist_01_r
            {
              OFFSET -0.5 0 0
              CHANNELS 3 Zrotation Xrotation Yrotation
              End Site
              {
                OFFSET 0 0 0
              }
            }
          }
        }
        JOINT neck_01
        {
          OFFSET 16.559 -0.355327 0
          CHANNELS 3 Zrotation Xrotation Yrotation
          JOINT head
          {
            OFFSET 9.28361 0.364152 0
            CHANNELS 3 Zrotation Xrotation Yrotation
            End Site
            {
              OFFSET 0 0 0
            }
          }
        }
      }
    }
  }
  JOINT thigh_l
  {
    OFFSET -1.44883 -0.531424 -9.00583
    CHANNELS 3 Zrotation Xrotation Yrotation
    JOINT calf_l
    {
      OFFSET -42.5721 -0.0184092 0.00225403
      CHANNELS 3 Zrotation Xrotation Yrotation
      JOINT calf_twist_01_l
      {
        OFFSET -20.4768 0 0
        CHANNELS 3 Zrotation Xrotation Yrotation
        End Site
        {
          OFFSET 0 0 0
        }
      }
      JOINT foot_l
      {
        OFFSET -40.1967 1.29056e-05 0
        CHANNELS 3 Zrotation Xrotation Yrotation
        End Site
        {
          OFFSET -10.4538 -16.5779 0.0801559
        }
      }
    }
    JOINT thigh_twist_01_l
    {
      OFFSET -22.0942 0 0
      CHANNELS 3 Zrotation Xrotation Yrotation
      End Site
      {
        OFFSET 0 0 0
      }
    }
  }
  JOINT thigh_r
  {
    OFFSET -1.44865 -0.531429 9.00581
    CHANNELS 3 Zrotation Xrotation Yrotation
    JOINT calf_r
    {
      OFFSET 42.5721 0.0885695 0.00381123
      CHANNELS 3 Zrotation Xrotation Yrotation
      JOINT calf_twist_01_r
      {
        OFFSET 20.4769 0 0
        CHANNELS 3 Zrotation Xrotation Yrotation
        End Site
        {
          OFFSET 0 0 0
        }
      }
      JOINT foot_r
      {
        OFFSET 40.1969 0 -1.41234e-05
        CHANNELS 3 Zrotation Xrotation Yrotation
        End Site
        {
          OFFSET 10.4538 16.5778 -0.0801584
        }
      }
    }
    JOINT thigh_twist_01_r
    {
      OFFSET 22.0942 0 0
      CHANNELS 3 Zrotation Xrotation Yrotation
      End Site
      {
        OFFSET 0 0 0
      }
    }
  }
}
MOTION
Frames:	9
Frame Time:	0.00833333
-0.00268794 94.9976 -0.020098 -0.460671 -88.5547 -89.9982 -0.552992 -0.0715977 0.0451777 5.83804 -0.131107 0.107112 -8.88944 -0.143764 0.0894071 -0.430532 3.71315 91.3681 -34.7098 3.63155 74.8852 -22.2714 -0.0158024 0.0802261 -152.289 -77.6336 -157.154 26.5353 14.8341 -3.89375 11.9972 1.33777 -0.47542 23.061 1.90338 -7.04447 12.3209 -2.02455 1.13755 13.9094 -17.677 -19.9109 11.2325 1.06356 -1.31591 20.6697 -13.258 -11.2941 13.3242 0.301228 -1.66977 -71.3441 52.7838 96.7072 14.8757 1.58943 9.83706 8.82781e-32 -3.18055e-15 1.59028e-15 2.5345e-15 -3.18055e-15 7.55382e-15 175.36 5.53841 97.1874 -38.2328 1.63178 71.418 -22.6278 -0.0162466 0.0812935 -120.385 -81.6697 -124.248 26.5353 14.8342 -3.89375 11.9972 1.33777 -0.475424 23.061 1.90338 -7.04447 12.3209 -2.02455 1.13755 13.9094 -17.677 -19.9109 11.2325 1.06356 -1.31591 20.6697 -13.258 -11.2941 13.3242 0.301228 -1.66977 -71.3441 52.7838 96.7072 14.8757 1.58944 9.83707 -2.79846e-15 -13.5104 1.63554e-15 2.30423e-15 -19.9519 -2.37912e-16 -1.66917 -0.787312 -1.98821 20.0711 -0.289405 0.251981 -3.50242 6.68407 -0.555881 -2.17398 -0.0011692 0.0121729 -0.871745 0.323558 -0.219088 7.63165 -3.87276 1.59259 -0.0563504 -5.43867 -0.000211991 175.443 -2.26479 0.451111 0.04826 0.00267648 -0.0028737 -0.871727 0.323368 -0.219136 7.19524 8.67015 -0.942484 -0.0563562 -5.43887 -0.000163683 
0.0072168 94.997 -0.016888 -0.090439 -88.5506 -89.6357 -0.549662 -0.0699304 0.0470249 5.8447 -0.127378 0.110353 -8.88278 -0.14048 0.0931048 -0.482498 3.72537 91.4281 -34.9779 3.62681 74.8122 -22.1949 -0.0156755 0.0798906 -151.279 -77.3616 -155.762 26.5353 14.8341 -3.89375 11.9972 1.33777 -0.475422 23.061 1.90338 -7.04447 12.3209 -2.02455 1.13755 13.9094 -17.677 -19.9109 11.2325 1.06355 -1.31591 20.6697 -13.258 -11.2941 13.3242 0.301226 -1.66977 -71.3441 52.7838 96.7072 14.8757 1.58944 9.83705 -6.36111e-15 9.54166e-15 -1.59028e-15 6.4605e-16 -6.36111e-15 4.22417e-15 175.363 5.53787 97.2075 -38.2751 1.64161 71.407 -22.6137 -0.0162317 0.0812906 -120.063 -81.6837 -123.975 26.5353 14.8342 -3.89375 11.9972 1.33777 -0.475419 23.061 1.90339 -7.04447 12.3209 -2.02455 1.13755 13.9094 -17.677 -19.9109 11.2325 1.06355 -1.31591 20.6697 -13.258 -11.2941 13.3242 0.301226 -1.66977 -71.3441 52.7838 96.7072 14.8757 1.58944 9.83706 4.32684e-15 -13.5104 4.90661e-15 7.94296e-16 -19.9519 1.45391e-15 -1.68919 -0.762029 -1.97876 20.057 -0.285375 0.262787 -3.50112 6.70003 -0.539344 -2.1804 -0.00121312 0.0126013 -0.871745 0.323558 -0.219088 7.63722 -3.89221 1.56737 -0.0563504 -5.43867 -0.000211991 175.342 -2.27214 0.434178 0.141046 0.00257824 -0.00742062 -0.871727 0.323368 -0.219136 7.21284 8.6711 -0.910617 -0.0563562 -5.43887 -0.000163683 
0.0122782 94.9974 -0.0187994 1.03467 -88.5569 -88.5089 -0.551601 -0.0744335 0.0434519 5.84085 -0.137198 0.104339 -8.88663 -0.149442 0.0858912 -0.501273 3.74498 91.4778 -35.0746 3.5943 74.7522 -22.2285 -0.0157456 0.0801031 -150.87 -77.2768 -155.198 26.5353 14.8341 -3.89375 11.9972 1.33778 -0.475416 23.061 1.90338 -7.04447 12.3209 -2.02455 1.13755 13.9094 -17.677 -19.9109 11.2325 1.06355 -1.31591 20.6697 -13.258 -11.2941 13.3242 0.301229 -1.66977 -71.3441 52.7838 96.7072 14.8757 1.58942 9.83706 -1.59028e-15 -3.18055e-15 1.59028e-15 -5.96354e-16 -6.36111e-15 4.42296e-15 175.369 5.54025 97.1961 -38.3093 1.6235 71.4002 -22.5925 -0.0162688 0.0813539 -120.1 -81.6708 -124.039 26.5353 14.8342 -3.89375 11.9972 1.33777 -0.475423 23.061 1.90338 -7.04447 12.3209 -2.02455 1.13755 13.9094 -17.677 -19.9109 11.2325 1.06355 -1.31592 20.6697 -13.258 -11.2941 13.3242 0.30123 -1.66977 -71.3441 52.7838 96.7072 14.8757 1.58944 9.83707 3.18055e-15 -13.5104 -0 -1.94582e-15 -19.9519 -2.35269e-15 -1.68982 -0.738852 -1.94079 20.0301 -0.276335 0.266402 -3.38827 6.68852 -0.542195 -2.31111 -0.000774105 8.60549e-05 -0.871745 0.323558 -0.219088 7.637 -3.9112 1.58914 -0.0563504 -5.43867 -0.000211991 175.335 -2.25829 0.436229 0.0846162 0.00281384 -0.00985779 -0.871727 0.323368 -0.219136 7.2675 8.68576 -0.899245 -0.0563562 -5.43887 -0.000163683 
0.0211561 94.9956 -0.0052633 3.09568 -88.5707 -86.4426 -0.552195 -0.0831792 0.0390234 5.83964 -0.155619 0.0976879 -8.88786 -0.166861 0.0769281 -0.504874 3.75457 91.4994 -35.0481 3.57482 74.7218 -22.3568 -0.0158858 0.0804002 -150.83 -77.336 -155.149 26.5353 14.8341 -3.89375 11.9972 1.33778 -0.475422 23.061 1.90339 -7.04447 12.3209 -2.02455 1.13755 13.9094 -17.677 -19.9109 11.2325 1.06355 -1.31591 20.6697 -13.258 -11.2941 13.3242 0.301229 -1.66977 -71.3441 52.7838 96.7072 14.8757 1.58944 9.83706 -3.18055e-15 3.18055e-15 -3.18055e-15 1.44119e-15 3.18055e-15 1.02871e-14 175.364 5.54524 97.1836 -38.2847 1.5902 71.4004 -22.5994 -0.0162444 0.0812611 -119.917 -81.6956 -123.924 26.5353 14.8342 -3.89375 11.9972 1.33776 -0.475424 23.061 1.90339 -7.04447 12.3209 -2.02455 1.13755 13.9094 -17.677 -19.9109 11.2325 1.06355 -1.31591 20.6697 -13.258 -11.2941 13.3242 0.301229 -1.66977 -71.3441 52.7838 96.7072 14.8758 1.58944 9.83706 5.15293e-15 -13.5104 1.63554e-15 -1.41211e-15 -19.9519 -3.41008e-15 -1.71463 -0.728929 -1.91587 20.0144 -0.214843 0.282367 -3.4965 6.63606 -0.544631 -2.21131 -0.00108767 0.00978603 -0.871745 0.323558 -0.219088 7.64359 -3.91345 1.57224 -0.0563504 -5.43867 -0.000211991 175.407 -2.20046 0.441279 -0.00468928 0.00285177 -0.00450882 -0.871727 0.323368 -0.219136 7.26023 8.68823 -0.908294 -0.0563562 -5.43887 -0.000163683 
0.0296444 94.9952 0.00166243 3.85576 -88.5728 -85.6849 -0.55149 -0.0866857 0.0380888 5.84107 -0.162806 0.0966909 -8.88642 -0.173861 0.0750318 -0.499181 3.76728 91.5047 -35.0638 3.57588 74.7128 -22.5043 -0.0161363 0.0809572 -150.486 -77.3705 -154.82 26.5353 14.8342 -3.89375 11.9972 1.33777 -0.475421 23.061 1.90338 -7.04447 12.3209 -2.02455 1.13755 13.9094 -17.677 -19.9109 11.2325 1.06355 -1.31591 20.6697 -13.258 -11.2941 13.3242 0.30123 -1.66977 -71.3441 52.7838 96.7072 14.8757 1.58943 9.83705 -8.82781e-32 -3.18055e-15 -1.59028e-15 -4.96962e-17 -3.18055e-15 3.55328e-15 175.362 5.55485 97.2013 -38.2848 1.58219 71.3801 -22.5823 -0.0161988 0.0811638 -120.147 -81.6472 -124.067 26.5353 14.8341 -3.89375 11.9972 1.33778 -0.47542 23.061 1.90338 -7.04447 12.3209 -2.02455 1.13755 13.9094 -17.677 -19.9109 11.2325 1.06355 -1.31591 20.6697 -13.258 -11.2941 13.3242 0.301228 -1.66977 -71.3441 52.7838 96.7072 14.8757 1.58943 9.83706 -1.59028e-15 -13.5104 -0 -4.45685e-15 -19.9519 -3.8859e-15 -1.71717 -0.721742 -1.87766 19.991 -0.210771 0.289105 -3.53322 6.57094 -0.535194 -2.16611 -0.00112099 0.0105828 -0.871745 0.323558 -0.219088 7.63642 -3.86971 1.5758 -0.0563504 -5.43867 -0.000211991 175.372 -2.19626 0.43185 0.0991739 0.0024983 -0.00229823 -0.871727 0.323368 -0.219136 7.18103 8.69923 -0.906249 -0.0563562 -5.43887 -0.000163683 
0.0349113 94.9933 0.0130653 4.31081 -88.5674 -85.2332 -0.548724 -0.0888217 0.0380432 5.84659 -0.167063 0.0971044 -8.88091 -0.17814 0.0748919 -0.492047 3.79438 91.5158 -35.1187 3.58078 74.7004 -22.6553 -0.0163388 0.0815544 -150.046 -77.3707 -154.427 26.5353 14.8342 -3.89375 11.9972 1.33778 -0.475417 23.061 1.90338 -7.04447 12.3209 -2.02455 1.13755 13.9094 -17.677 -19.9109 11.2325 1.06355 -1.31591 20.6697 -13.258 -11.2941 13.3242 0.30123 -1.66977 -71.3441 52.7838 96.7072 14.8757 1.58943 9.83706 -1.59028e-15 0 -0 -1.04362e-15 -9.54166e-15 6.13748e-15 175.357 5.55504 97.2231 -38.2524 1.57354 71.359 -22.6077 -0.0162782 0.0812585 -119.941 -81.634 -123.901 26.5353 14.8341 -3.89375 11.9972 1.33778 -0.47542 23.061 1.90338 -7.04447 12.3209 -2.02455 1.13755 13.9094 -17.677 -19.9109 11.2325 1.06355 -1.31591 20.6697 -13.258 -11.2941 13.3242 0.301228 -1.66977 -71.3441 52.7838 96.7072 14.8757 1.58943 9.83706 2.35447e-15 -13.5104 3.27107e-15 7.79311e-16 -19.9519 2.64347e-17 -1.74175 -0.705922 -1.87265 19.9894 -0.163017 0.314783 -3.61223 6.5557 -0.528328 -2.06909 -0.00136286 0.0182579 -0.871745 0.323558 -0.219088 7.61216 -3.86891 1.58695 -0.0563504 -5.43867 -0.000211991 175.43 -2.22683 0.428182 -0.0839585 0.00300761 -0.00509847 -0.871727 0.323368 -0.219136 7.31507 8.73679 -0.890609 -0.0563562 -5.43887 -0.000163683 
0.037592 94.9928 0.0143933 4.41826 -88.5718 -85.1216 -0.547001 -0.0893079 0.0360319 5.85005 -0.168498 0.0932508 -8.87744 -0.179058 0.0708848 -0.505233 3.77922 91.5278 -35.0621 3.57476 74.6805 -22.8293 -0.0165505 0.0820145 -149.811 -77.4328 -154.246 26.5353 14.8341 -3.89375 11.9972 1.33778 -0.475416 23.061 1.90339 -7.04447 12.3209 -2.02455 1.13755 13.9094 -17.677 -19.9109 11.2325 1.06356 -1.31591 20.6697 -13.258 -11.2941 13.3242 0.301231 -1.66977 -71.3441 52.7838 96.7072 14.8758 1.58943 9.83707 -1.76556e-30 -1.59028e-14 -6.36111e-15 -1.49089e-16 -1.27222e-14 7.90169e-15 175.357 5.55593 97.2328 -38.1733 1.54442 71.3531 -22.6337 -0.0162449 0.0812954 -119.811 -81.6721 -123.801 26.5353 14.8341 -3.89375 11.9972 1.33777 -0.475423 23.061 1.90339 -7.04447 12.3209 -2.02455 1.13755 13.9094 -17.677 -19.9109 11.2325 1.06355 -1.31591 20.6697 -13.258 -11.2941 13.3242 0.301227 -1.66977 -71.3441 52.7838 96.7072 14.8757 1.58944 9.83707 -3.56265e-15 -13.5104 -1.63554e-15 1.70786e-15 -19.9519 -4.09738e-15 -1.75532 -0.684825 -1.85461 19.9647 -0.143722 0.339156 -3.59857 6.58113 -0.533558 -2.0741 -0.00117741 0.013794 -0.871745 0.323558 -0.219088 7.60678 -3.90167 1.62497 -0.0563504 -5.43867 -0.000211991 175.398 -2.24164 0.430601 0.0338425 0.00270462 -0.00214639 -0.871727 0.323368 -0.219136 7.22728 8.76559 -0.919994 -0.0563562 -5.43887 -0.000163683 
0.0423342 94.9912 0.0206614 4.88113 -88.5703 -84.6643 -0.545836 -0.0935232 0.0369187 5.85242 -0.176656 0.0960434 -8.87509 -0.187505 0.0726024 -0.513718 3.78566 91.5273 -35.0699 3.56865 74.6703 -22.9772 -0.0167742 0.0825382 -149.584 -77.4699 -154.015 26.5353 14.8341 -3.89375 11.9972 1.33777 -0.47542 23.061 1.90338 -7.04447 12.3209 -2.02455 1.13755 13.9094 -17.677 -19.9109 11.2325 1.06355 -1.31591 20.6697 -13.258 -11.2941 13.3242 0.30123 -1.66977 -71.3441 52.7838 96.7072 14.8757 1.58943 9.83707 -3.18055e-15 0 -3.18055e-15 1.76421e-15 -6.36111e-15 6.83322e-15 175.359 5.5589 97.2526 -38.1288 1.52672 71.3367 -22.6384 -0.0163264 0.0814624 -119.928 -81.6553 -123.855 26.5353 14.8341 -3.89375 11.9972 1.33777 -0.475422 23.061 1.90338 -7.04447 12.3209 -2.02455 1.13755 13.9094 -17.677 -19.9109 11.2325 1.06355 -1.31591 20.6697 -13.258 -11.2941 13.3242 0.301226 -1.66977 -71.3441 52.7838 96.7072 14.8757 1.58944 9.83707 -1.14629e-15 -13.5104 -4.90661e-15 7.52671e-16 -19.9519 -7.79824e-16 -1.76012 -0.676577 -1.8332 19.9519 -0.115635 0.346083 -3.54787 6.6176 -0.523471 -2.12058 -0.000951247 0.00595211 -0.871745 0.323558 -0.219088 7.60704 -3.94048 1.61053 -0.0563504 -5.43867 -0.000211991 175.425 -2.22562 0.429438 -0.125519 0.00333729 -0.00621224 -0.871727 0.323368 -0.219136 7.36311 8.75958 -0.93388 -0.0563562 -5.43887 -0.000163683 
0.0469744 94.9895 0.0262918 5.27352 -88.5663 -84.2727 -0.542975 -0.0949736 0.0357762 5.85815 -0.17982 0.094126 -8.86936 -0.190411 0.070296 -0.530458 3.78467 91.545 -35.1265 3.56866 74.6582 -23.1161 -0.0169616 0.083008 -148.927 -77.5137 -153.402 26.5353 14.8341 -3.89375 11.9972 1.33777 -0.475423 23.061 1.90338 -7.04447 12.3209 -2.02455 1.13755 13.9094 -17.677 -19.9109 11.2325 1.06355 -1.31591 20.6697 -13.258 -11.2941 13.3242 0.301233 -1.66977 -71.3441 52.7838 96.7072 14.8757 1.58944 9.83707 0 0 -0 -1.49089e-15 3.18055e-15 6.90777e-15 175.355 5.5707 97.2782 -38.0979 1.52708 71.3102 -22.6628 -0.016357 0.0815394 -119.87 -81.6024 -123.772 26.5353 14.8342 -3.89375 11.9972 1.33777 -0.475421 23.061 1.90339 -7.04447 12.3209 -2.02456 1.13755 13.9094 -17.677 -19.9109 11.2325 1.06355 -1.31591 20.6697 -13.258 -11.2941 13.3242 0.301229 -1.66977 -71.3441 52.7838 96.7072 14.8757 1.58944 9.83707 -0 -13.5104 -0 3.07671e-15 -19.9519 -4.01808e-15 -1.76758 -0.659839 -1.82628 19.9382 -0.120957 0.374703 -3.55045 6.60733 -0.518823 -2.10032 -0.000863897 0.00440201 -0.871745 0.323558 -0.219088 7.60662 -3.95037 1.60273 -0.0563504 -5.43867 -0.000211991 175.34 -2.25497 0.426795 -0.0331 0.00333201 -0.00955131 -0.871727 0.323368 -0.219136 7.35834 8.80457 -0.936779 -0.0563562 -5.43887 -0.000163683 
